<?xml version="1.0" encoding="utf-8"?>
<!-- Generator: Adobe Illustrator 21.0.0, SVG Export Plug-In . SVG Version: 6.00 Build 0)  -->
<svg version="1.1" id="Laag_1" xmlns="http://www.w3.org/2000/svg" xmlns:xlink="http://www.w3.org/1999/xlink" x="0px" y="0px"
	 viewBox="0 0 1366 768" style="enable-background:new 0 0 1366 768;" xml:space="preserve">
<style type="text/css">
	.st0{display:none;fill:#272727;}
	.st1{fill:#272727;stroke:#00FF3E;stroke-width:10;stroke-linecap:round;stroke-linejoin:round;stroke-miterlimit:10;}
	.st2{fill:#272727;stroke:#00FF3E;stroke-width:10;stroke-miterlimit:10;}
</style>
<rect x="494.5" y="158.5" class="st0" width="355" height="409"/>
<polygon class="st1" points="532.5,280.3 532.5,440.7 671.5,521 810.5,440.7 810.5,280.3 671.5,200 "/>
<path class="st2" d="M670.3,234.5c-20.2,26.2-60.6,78.6-80.8,104.8c-0.4,0.5-0.2,1.2,0.3,1.5c20.2,12,60.6,36.1,80.8,48.1
	c0.3,0.2,0.7,0.2,1,0c20.6-12,61.9-36,82.6-48c0.5-0.3,0.7-1,0.3-1.5c-20.6-26.2-61.9-78.7-82.6-105
	C671.5,234,670.7,234,670.3,234.5z"/>
<path class="st2" d="M671.5,410.5l75.5-46.8c0.9-0.6,1.9,0.5,1.4,1.4l-76,126c-0.4,0.6-1.3,0.6-1.7,0l-76-126
	c-0.5-0.9,0.5-1.9,1.4-1.4L671.5,410.5z"/>
<path class="st2" d="M671,202v35V202z"/>
<path class="st2" d="M671,492v24V492z"/>
</svg>
