<?xml version="1.0" encoding="utf-8"?>
<!-- Generator: Adobe Illustrator 21.0.0, SVG Export Plug-In . SVG Version: 6.00 Build 0)  -->
<svg version="1.1" id="Laag_1" xmlns="http://www.w3.org/2000/svg" xmlns:xlink="http://www.w3.org/1999/xlink" x="0px" y="0px"
	 viewBox="0 0 1920 1080" style="enable-background:new 0 0 1920 1080;" xml:space="preserve">
<style type="text/css">
	.st0{fill:#353230;}
	.st1{font-family:'Santral-Light';}
	.st2{font-size:56px;}
	.st3{letter-spacing:7.8;}
	.st4{font-family:'Santral-Book';}
	.st5{font-size:46.1956px;}
	.st6{letter-spacing:6.1;}
	.st7{fill:#272727;stroke:#00FF3E;stroke-width:10;stroke-linecap:round;stroke-linejoin:round;stroke-miterlimit:10;}
	.st8{fill:#272727;stroke:#00FF3E;stroke-width:10;stroke-miterlimit:10;}
</style>
<text transform="matrix(1.15 0 0 1 884.8467 583.0742)"><tspan x="0" y="0" class="st0 st1 st2 st3">ETHER</tspan><tspan x="235.5" y="0" class="st0 st4 st2 st3">CLUSTER</tspan><tspan x="268.6" y="55.4" class="st0 st1 st5 st6"> </tspan></text>
<polygon class="st7" points="370.5,440.8 370.5,698.3 593.5,827 816.5,698.3 816.5,440.8 593.5,312 "/>
<path class="st8" d="M591.6,367.3c-32.4,42-97.2,126.1-129.6,168.1c-0.6,0.8-0.4,1.9,0.4,2.4c32.4,19.3,97.2,57.9,129.6,77.2
	c0.5,0.3,1.1,0.3,1.6,0c33.1-19.2,99.3-57.7,132.5-76.9c0.8-0.5,1.1-1.6,0.5-2.4c-33.1-42.1-99.3-126.3-132.5-168.4
	C593.5,366.5,592.2,366.5,591.6,367.3z"/>
<path class="st8" d="M593.5,649.7l121.1-75.1c1.4-0.9,3.1,0.7,2.2,2.2L594.9,779c-0.6,1-2.1,1-2.7,0L470.2,576.8
	c-0.9-1.4,0.8-3.1,2.2-2.2L593.5,649.7z"/>
<path class="st8" d="M592.7,315.2v56.2V315.2z"/>
<line class="st8" x1="593.7" y1="771.2" x2="593.7" y2="827.4"/>
</svg>
